<?xml version="1.0" encoding="UTF-8" standalone="no"?>
<!DOCTYPE svg PUBLIC "-//W3C//DTD SVG 1.1//EN"
 "http://www.w3.org/Graphics/SVG/1.1/DTD/svg11.dtd">
<!-- Generated by graphviz version 2.44.0 (20200408.0750)
 -->
<!-- Title: project Pages: 1 -->
<svg width="833pt" height="910pt"
 viewBox="0.00 0.00 833.33 910.16" xmlns="http://www.w3.org/2000/svg" xmlns:xlink="http://www.w3.org/1999/xlink">
<g id="graph0" class="graph" transform="scale(1 1) rotate(0) translate(4 906.16)">
<title>project</title>
<polygon fill="rgb(252,243,217)" stroke="transparent" points="-4,4 -4,-906.16 829.33,-906.16 829.33,4 -4,4"/>
<!-- cross&#45;test -->
<g id="node1" class="node">
<title>cross&#45;test</title>
<ellipse fill="none" stroke="black" cx="346.17" cy="-702.16" rx="44.39" ry="18"/>
<text text-anchor="middle" x="346.17" y="-698.46" font-family="Times,serif" font-size="14.00">cross&#45;test</text>
</g>
<!-- cross -->
<g id="node5" class="node">
<title>cross</title>
<ellipse fill="none" stroke="black" cx="447.76" cy="-564.16" rx="28.7" ry="18"/>
<text text-anchor="middle" x="447.76" y="-560.46" font-family="Times,serif" font-size="14.00">cross</text>
</g>
<!-- cross&#45;test&#45;&gt;cross -->
<g id="edge20" class="edge">
<title>cross&#45;test&#45;&gt;cross</title>
<path fill="none" stroke="black" d="M376.12,-688.88C381.59,-685.16 386.73,-680.61 390.37,-675.16 402.38,-657.18 389.74,-647 398.37,-627.16 404.74,-612.51 415.26,-598.21 424.86,-586.95"/>
<polygon fill="black" stroke="black" points="427.61,-589.13 431.62,-579.33 422.37,-584.49 427.61,-589.13"/>
</g>
<!-- mtest -->
<g id="node7" class="node">
<title>mtest</title>
<ellipse fill="none" stroke="black" cx="552.6" cy="-476.16" rx="30.59" ry="18"/>
<text text-anchor="middle" x="552.6" y="-472.46" font-family="Times,serif" font-size="14.00">mtest</text>
</g>
<!-- cross&#45;test&#45;&gt;mtest -->
<g id="edge1" class="edge">
<title>cross&#45;test&#45;&gt;mtest</title>
<path fill="none" stroke="black" d="M372.14,-687.19C378.19,-683.39 384.58,-679.23 390.37,-675.16 439.77,-640.44 459.51,-638.37 497.16,-591.16 518.46,-564.45 533.9,-528.03 542.78,-503.39"/>
<polygon fill="black" stroke="black" points="546.09,-504.53 546.08,-493.93 539.48,-502.22 546.09,-504.53"/>
</g>
<!-- mtags -->
<g id="node23" class="node">
<title>mtags</title>
<ellipse fill="none" stroke="black" cx="667.84" cy="-476.16" rx="32.49" ry="18"/>
<text text-anchor="middle" x="667.84" y="-472.46" font-family="Times,serif" font-size="14.00">mtags</text>
</g>
<!-- cross&#45;test&#45;&gt;mtags -->
<g id="edge21" class="edge">
<title>cross&#45;test&#45;&gt;mtags</title>
<path fill="none" stroke="black" d="M383.68,-692.65C415.34,-683.35 461.54,-667.23 497.16,-644.16 559.97,-603.48 618.58,-536.63 647.67,-500.75"/>
<polygon fill="black" stroke="black" points="650.57,-502.74 654.09,-492.75 645.1,-498.36 650.57,-502.74"/>
</g>
<!-- input -->
<g id="node2" class="node">
<title>input</title>
<ellipse fill="none" stroke="black" cx="346.17" cy="-182.16" rx="28.7" ry="18"/>
<text text-anchor="middle" x="346.17" y="-178.46" font-family="Times,serif" font-size="14.00">input</text>
</g>
<!-- slow -->
<g id="node3" class="node">
<title>slow</title>
<ellipse fill="none" stroke="black" cx="346.17" cy="-556.16" rx="27.1" ry="18"/>
<text text-anchor="middle" x="346.17" y="-552.46" font-family="Times,serif" font-size="14.00">slow</text>
</g>
<!-- unit -->
<g id="node12" class="node">
<title>unit</title>
<ellipse fill="none" stroke="black" cx="447.76" cy="-434.16" rx="27" ry="18"/>
<text text-anchor="middle" x="447.76" y="-430.46" font-family="Times,serif" font-size="14.00">unit</text>
</g>
<!-- slow&#45;&gt;unit -->
<g id="edge14" class="edge">
<title>slow&#45;&gt;unit</title>
<path fill="none" stroke="black" d="M368.19,-545.43C376.42,-540.15 385.13,-533 390.37,-524.16 403.64,-501.78 384.5,-488.19 398.37,-466.16 402.67,-459.33 409.02,-453.64 415.72,-449.05"/>
<polygon fill="black" stroke="black" points="417.56,-452.02 424.26,-443.81 413.9,-446.05 417.56,-452.02"/>
</g>
<!-- mtest&#45;test -->
<g id="node4" class="node">
<title>mtest&#45;test</title>
<ellipse fill="none" stroke="black" cx="447.76" cy="-144.16" rx="45.49" ry="18"/>
<text text-anchor="middle" x="447.76" y="-140.46" font-family="Times,serif" font-size="14.00">mtest&#45;test</text>
</g>
<!-- mtest&#45;test&#45;&gt;mtest -->
<g id="edge19" class="edge">
<title>mtest&#45;test&#45;&gt;mtest</title>
<path fill="none" stroke="black" d="M454.29,-162.01C471.24,-216.73 522.56,-382.41 543.04,-448.51"/>
<polygon fill="black" stroke="black" points="539.74,-449.71 546.05,-458.23 546.43,-447.64 539.74,-449.71"/>
</g>
<!-- mtest&#45;test&#45;&gt;mtags -->
<g id="edge50" class="edge">
<title>mtest&#45;test&#45;&gt;mtags</title>
<path fill="none" stroke="black" d="M483.81,-155.38C518.41,-168.25 570.33,-192.67 600.05,-231.16 650.9,-297.02 663.08,-398.93 665.97,-447.94"/>
<polygon fill="black" stroke="black" points="662.48,-448.3 666.47,-458.12 669.47,-447.96 662.48,-448.3"/>
</g>
<!-- cross&#45;&gt;mtest -->
<g id="edge35" class="edge">
<title>cross&#45;&gt;mtest</title>
<path fill="none" stroke="black" d="M469.23,-552.01C478.12,-546.39 488.47,-539.36 497.16,-532.16 508.97,-522.38 520.98,-510.3 530.7,-499.87"/>
<polygon fill="black" stroke="black" points="533.48,-502.02 537.65,-492.28 528.32,-497.29 533.48,-502.02"/>
</g>
<!-- cross&#45;&gt;mtags -->
<g id="edge23" class="edge">
<title>cross&#45;&gt;mtags</title>
<path fill="none" stroke="black" d="M472.35,-554.66C502.11,-542.67 554.88,-521.4 600.05,-503.16 610.33,-499.01 621.51,-494.5 631.72,-490.37"/>
<polygon fill="black" stroke="black" points="633.2,-493.55 641.15,-486.55 630.57,-487.06 633.2,-493.55"/>
</g>
<!-- docs -->
<g id="node6" class="node">
<title>docs</title>
<ellipse fill="none" stroke="black" cx="346.17" cy="-128.16" rx="27" ry="18"/>
<text text-anchor="middle" x="346.17" y="-124.46" font-family="Times,serif" font-size="14.00">docs</text>
</g>
<!-- metals -->
<g id="node11" class="node">
<title>metals</title>
<ellipse fill="none" stroke="black" cx="552.6" cy="-258.16" rx="34.39" ry="18"/>
<text text-anchor="middle" x="552.6" y="-254.46" font-family="Times,serif" font-size="14.00">metals</text>
</g>
<!-- docs&#45;&gt;metals -->
<g id="edge6" class="edge">
<title>docs&#45;&gt;metals</title>
<path fill="none" stroke="black" d="M369.83,-137.57C377.5,-141.84 385.37,-147.65 390.37,-155.16 402.59,-173.54 384.2,-187.24 398.37,-204.16 413.05,-221.71 470.68,-238.71 510.91,-248.8"/>
<polygon fill="black" stroke="black" points="510.18,-252.23 520.73,-251.22 511.86,-245.43 510.18,-252.23"/>
</g>
<!-- mtest&#45;&gt;mtags -->
<g id="edge17" class="edge">
<title>mtest&#45;&gt;mtags</title>
<path fill="none" stroke="black" d="M583.36,-476.16C596.1,-476.16 611.2,-476.16 625.04,-476.16"/>
<polygon fill="black" stroke="black" points="625.31,-479.66 635.31,-476.16 625.31,-472.66 625.31,-479.66"/>
</g>
<!-- unit&#45;test -->
<g id="node8" class="node">
<title>unit&#45;test</title>
<ellipse fill="none" stroke="black" cx="346.17" cy="-648.16" rx="39.79" ry="18"/>
<text text-anchor="middle" x="346.17" y="-644.46" font-family="Times,serif" font-size="14.00">unit&#45;test</text>
</g>
<!-- unit&#45;test&#45;&gt;mtest -->
<g id="edge22" class="edge">
<title>unit&#45;test&#45;&gt;mtest</title>
<path fill="none" stroke="black" d="M366.97,-632.69C375.61,-624.82 384.98,-614.51 390.37,-603.16 403.03,-576.47 380.34,-560.57 398.37,-537.16 405.92,-527.35 473.26,-502.94 516.12,-488.14"/>
<polygon fill="black" stroke="black" points="517.33,-491.43 525.65,-484.87 515.06,-484.81 517.33,-491.43"/>
</g>
<!-- unit&#45;test&#45;&gt;metals -->
<g id="edge37" class="edge">
<title>unit&#45;test&#45;&gt;metals</title>
<path fill="none" stroke="black" d="M367.21,-632.8C375.91,-624.95 385.25,-614.64 390.37,-603.16 400.25,-580.98 383.46,-513.34 398.37,-494.16 426.78,-457.62 465.43,-494.87 497.16,-461.16 509.27,-448.3 534.21,-338.73 545.64,-286.13"/>
<polygon fill="black" stroke="black" points="549.12,-286.63 547.81,-276.12 542.27,-285.15 549.12,-286.63"/>
</g>
<!-- unit&#45;test&#45;&gt;unit -->
<g id="edge56" class="edge">
<title>unit&#45;test&#45;&gt;unit</title>
<path fill="none" stroke="black" d="M373.09,-634.58C379.87,-629.71 386.39,-623.56 390.37,-616.16 406.17,-586.76 381.78,-495.13 398.37,-466.16 402.45,-459.03 408.84,-453.2 415.66,-448.56"/>
<polygon fill="black" stroke="black" points="417.62,-451.46 424.38,-443.31 414.01,-445.47 417.62,-451.46"/>
</g>
<!-- interfaces -->
<g id="node9" class="node">
<title>interfaces</title>
<ellipse fill="none" stroke="black" cx="780.49" cy="-775.16" rx="44.69" ry="18"/>
<text text-anchor="middle" x="780.49" y="-771.46" font-family="Times,serif" font-size="14.00">interfaces</text>
</g>
<!-- bench&#45;test -->
<g id="node10" class="node">
<title>bench&#45;test</title>
<ellipse fill="none" stroke="black" cx="230.28" cy="-506.16" rx="46.59" ry="18"/>
<text text-anchor="middle" x="230.28" y="-502.46" font-family="Times,serif" font-size="14.00">bench&#45;test</text>
</g>
<!-- bench&#45;test&#45;&gt;unit -->
<g id="edge45" class="edge">
<title>bench&#45;test&#45;&gt;unit</title>
<path fill="none" stroke="black" d="M266.36,-494.51C298.6,-483.8 347.72,-467.45 390.37,-453.16 397.93,-450.63 406.06,-447.9 413.72,-445.32"/>
<polygon fill="black" stroke="black" points="415.09,-448.55 423.45,-442.04 412.85,-441.92 415.09,-448.55"/>
</g>
<!-- bench -->
<g id="node24" class="node">
<title>bench</title>
<ellipse fill="none" stroke="black" cx="346.17" cy="-426.16" rx="31.7" ry="18"/>
<text text-anchor="middle" x="346.17" y="-422.46" font-family="Times,serif" font-size="14.00">bench</text>
</g>
<!-- bench&#45;test&#45;&gt;bench -->
<g id="edge43" class="edge">
<title>bench&#45;test&#45;&gt;bench</title>
<path fill="none" stroke="black" d="M253.78,-490.36C271.96,-477.59 297.65,-459.54 317.17,-445.84"/>
<polygon fill="black" stroke="black" points="319.21,-448.68 325.38,-440.07 315.18,-442.95 319.21,-448.68"/>
</g>
<!-- metals&#45;&gt;mtags -->
<g id="edge54" class="edge">
<title>metals&#45;&gt;mtags</title>
<path fill="none" stroke="black" d="M577.67,-270.69C585.68,-275.83 594.08,-282.41 600.05,-290.16 637.26,-338.5 655,-409.4 662.37,-448.22"/>
<polygon fill="black" stroke="black" points="658.96,-449.05 664.18,-458.27 665.85,-447.81 658.96,-449.05"/>
</g>
<!-- unit&#45;&gt;mtest -->
<g id="edge52" class="edge">
<title>unit&#45;&gt;mtest</title>
<path fill="none" stroke="black" d="M471.08,-443.28C484.65,-448.82 502.25,-456.01 517.53,-462.25"/>
<polygon fill="black" stroke="black" points="516.59,-465.65 527.17,-466.19 519.24,-459.17 516.59,-465.65"/>
</g>
<!-- unit&#45;&gt;metals -->
<g id="edge27" class="edge">
<title>unit&#45;&gt;metals</title>
<path fill="none" stroke="black" d="M458.44,-417.61C476.41,-386.84 515.08,-320.66 536.52,-283.98"/>
<polygon fill="black" stroke="black" points="539.55,-285.72 541.58,-275.32 533.51,-282.19 539.55,-285.72"/>
</g>
<!-- input&#45;test -->
<g id="node13" class="node">
<title>input&#45;test</title>
<ellipse fill="none" stroke="black" cx="230.28" cy="-235.16" rx="44.39" ry="18"/>
<text text-anchor="middle" x="230.28" y="-231.46" font-family="Times,serif" font-size="14.00">input&#45;test</text>
</g>
<!-- input&#45;test&#45;&gt;input -->
<g id="edge25" class="edge">
<title>input&#45;test&#45;&gt;input</title>
<path fill="none" stroke="black" d="M260.02,-221.79C276.21,-214.25 296.48,-204.82 313.18,-197.05"/>
<polygon fill="black" stroke="black" points="314.95,-200.09 322.54,-192.69 312,-193.74 314.95,-200.09"/>
</g>
<!-- interfaces&#45;test -->
<g id="node14" class="node">
<title>interfaces&#45;test</title>
<ellipse fill="none" stroke="black" cx="667.84" cy="-884.16" rx="59.59" ry="18"/>
<text text-anchor="middle" x="667.84" y="-880.46" font-family="Times,serif" font-size="14.00">interfaces&#45;test</text>
</g>
<!-- interfaces&#45;test&#45;&gt;interfaces -->
<g id="edge4" class="edge">
<title>interfaces&#45;test&#45;&gt;interfaces</title>
<path fill="none" stroke="black" d="M700.8,-869.07C710.04,-863.84 719.75,-857.44 727.64,-850.16 742.67,-836.3 755.73,-817.33 764.99,-801.94"/>
<polygon fill="black" stroke="black" points="768.24,-803.3 770.24,-792.89 762.19,-799.78 768.24,-803.3"/>
</g>
<!-- docs&#45;test -->
<g id="node15" class="node">
<title>docs&#45;test</title>
<ellipse fill="none" stroke="black" cx="230.28" cy="-128.16" rx="42.49" ry="18"/>
<text text-anchor="middle" x="230.28" y="-124.46" font-family="Times,serif" font-size="14.00">docs&#45;test</text>
</g>
<!-- docs&#45;test&#45;&gt;docs -->
<g id="edge49" class="edge">
<title>docs&#45;test&#45;&gt;docs</title>
<path fill="none" stroke="black" d="M272.72,-128.16C284.6,-128.16 297.46,-128.16 309,-128.16"/>
<polygon fill="black" stroke="black" points="309.16,-131.66 319.16,-128.16 309.16,-124.66 309.16,-131.66"/>
</g>
<!-- docs&#45;test&#45;&gt;metals -->
<g id="edge9" class="edge">
<title>docs&#45;test&#45;&gt;metals</title>
<path fill="none" stroke="black" d="M255.07,-113.56C289.38,-94.58 352.74,-67.59 390.37,-101.16 402.05,-111.59 388.51,-159 398.37,-171.16 427.51,-207.13 457.79,-179.81 497.16,-204.16 501.43,-206.81 501.59,-208.62 505.16,-212.16 512.76,-219.73 521.08,-227.98 528.55,-235.37"/>
<polygon fill="black" stroke="black" points="526.11,-237.88 535.68,-242.43 531.03,-232.91 526.11,-237.88"/>
</g>
<!-- mtags&#45;test -->
<g id="node16" class="node">
<title>mtags&#45;test</title>
<ellipse fill="none" stroke="black" cx="552.6" cy="-840.16" rx="47.39" ry="18"/>
<text text-anchor="middle" x="552.6" y="-836.46" font-family="Times,serif" font-size="14.00">mtags&#45;test</text>
</g>
<!-- mtags&#45;test&#45;&gt;interfaces -->
<g id="edge51" class="edge">
<title>mtags&#45;test&#45;&gt;interfaces</title>
<path fill="none" stroke="black" d="M599.26,-836.6C635.16,-832.67 685.89,-824.56 727.64,-808.16 735.32,-805.15 743.09,-800.94 750.2,-796.54"/>
<polygon fill="black" stroke="black" points="752.33,-799.33 758.79,-790.93 748.5,-793.47 752.33,-799.33"/>
</g>
<!-- mtags&#45;test&#45;&gt;mtags -->
<g id="edge44" class="edge">
<title>mtags&#45;test&#45;&gt;mtags</title>
<path fill="none" stroke="black" d="M559.81,-822.23C568.91,-795.82 586.27,-744.84 600.05,-701.16 622.41,-630.26 646.83,-546.13 659.01,-503.65"/>
<polygon fill="black" stroke="black" points="662.38,-504.6 661.77,-494.02 655.65,-502.67 662.38,-504.6"/>
</g>
<!-- mtags3 -->
<g id="node17" class="node">
<title>mtags3</title>
<ellipse fill="none" stroke="black" cx="346.17" cy="-756.16" rx="36.29" ry="18"/>
<text text-anchor="middle" x="346.17" y="-752.46" font-family="Times,serif" font-size="14.00">mtags3</text>
</g>
<!-- mtags3&#45;&gt;interfaces -->
<g id="edge28" class="edge">
<title>mtags3&#45;&gt;interfaces</title>
<path fill="none" stroke="black" d="M382.55,-757.72C458.1,-761.04 635.63,-768.84 725.44,-772.79"/>
<polygon fill="black" stroke="black" points="725.54,-776.3 735.68,-773.24 725.84,-769.3 725.54,-776.3"/>
</g>
<!-- default&#45;86938c -->
<g id="node18" class="node">
<title>default&#45;86938c</title>
<ellipse fill="none" stroke="black" cx="230.28" cy="-361.16" rx="63.89" ry="18"/>
<text text-anchor="middle" x="230.28" y="-357.46" font-family="Times,serif" font-size="14.00">default&#45;86938c</text>
</g>
<!-- default&#45;86938c&#45;&gt;input -->
<g id="edge41" class="edge">
<title>default&#45;86938c&#45;&gt;input</title>
<path fill="none" stroke="black" d="M245.67,-343.38C260.23,-324.42 282.22,-292.95 293.97,-262.16 301.69,-241.96 290.69,-232.61 301.97,-214.16 305.36,-208.63 310.1,-203.74 315.2,-199.55"/>
<polygon fill="black" stroke="black" points="317.38,-202.29 323.38,-193.56 313.24,-196.65 317.38,-202.29"/>
</g>
<!-- default&#45;86938c&#45;&gt;slow -->
<g id="edge7" class="edge">
<title>default&#45;86938c&#45;&gt;slow</title>
<path fill="none" stroke="black" d="M241.14,-379.09C254.61,-403.47 279.65,-448.39 301.97,-486.16 310.83,-501.15 321.04,-517.73 329.32,-530.99"/>
<polygon fill="black" stroke="black" points="326.42,-532.96 334.69,-539.58 332.35,-529.25 326.42,-532.96"/>
</g>
<!-- default&#45;86938c&#45;&gt;cross -->
<g id="edge40" class="edge">
<title>default&#45;86938c&#45;&gt;cross</title>
<path fill="none" stroke="black" d="M242.81,-378.87C255.89,-398.25 278.46,-429.68 301.97,-453.16 338.89,-490.04 388.25,-525.42 418.75,-545.96"/>
<polygon fill="black" stroke="black" points="416.94,-548.96 427.21,-551.6 420.83,-543.14 416.94,-548.96"/>
</g>
<!-- default&#45;86938c&#45;&gt;docs -->
<g id="edge3" class="edge">
<title>default&#45;86938c&#45;&gt;docs</title>
<path fill="none" stroke="black" d="M246.24,-343.58C261.26,-324.79 283.62,-293.45 293.97,-262.16 301.47,-239.53 289.65,-175.57 301.97,-155.16 304.95,-150.24 309.19,-146.08 313.88,-142.61"/>
<polygon fill="black" stroke="black" points="316.02,-145.4 322.6,-137.09 312.28,-139.48 316.02,-145.4"/>
</g>
<!-- default&#45;86938c&#45;&gt;mtest -->
<g id="edge48" class="edge">
<title>default&#45;86938c&#45;&gt;mtest</title>
<path fill="none" stroke="black" d="M292.73,-357.25C350.66,-356.68 437.3,-364.22 497.16,-407.16 513.18,-418.66 526.89,-436.12 536.55,-450.6"/>
<polygon fill="black" stroke="black" points="533.69,-452.62 542.03,-459.16 539.58,-448.85 533.69,-452.62"/>
</g>
<!-- default&#45;86938c&#45;&gt;interfaces -->
<g id="edge31" class="edge">
<title>default&#45;86938c&#45;&gt;interfaces</title>
<path fill="none" stroke="black" d="M240.56,-343.33C252.51,-321.65 274.99,-284.89 301.97,-260.16 335.42,-229.52 366.62,-247.8 390.37,-209.16 398.87,-195.32 386.57,-74.33 398.37,-63.16 464.55,-0.51 535.44,-35.89 600.05,-100.16 717.14,-216.63 686.12,-289.32 727.64,-449.16 755.72,-557.29 771.1,-689.77 776.84,-746.82"/>
<polygon fill="black" stroke="black" points="773.36,-747.28 777.83,-756.89 780.33,-746.59 773.36,-747.28"/>
</g>
<!-- default&#45;86938c&#45;&gt;metals -->
<g id="edge2" class="edge">
<title>default&#45;86938c&#45;&gt;metals</title>
<path fill="none" stroke="black" d="M243.59,-343.25C256.17,-326.5 277.32,-302.3 301.97,-290.16 368.35,-257.48 456.14,-254.03 507.97,-255.45"/>
<polygon fill="black" stroke="black" points="508.03,-258.95 518.15,-255.8 508.28,-251.95 508.03,-258.95"/>
</g>
<!-- default&#45;86938c&#45;&gt;unit -->
<g id="edge55" class="edge">
<title>default&#45;86938c&#45;&gt;unit</title>
<path fill="none" stroke="black" d="M286.4,-369.82C317.67,-375.83 357.08,-385.29 390.37,-399.16 400.58,-403.42 411.06,-409.41 420.18,-415.23"/>
<polygon fill="black" stroke="black" points="418.51,-418.32 428.78,-420.92 422.37,-412.48 418.51,-418.32"/>
</g>
<!-- default&#45;86938c&#45;&gt;mtags3 -->
<g id="edge16" class="edge">
<title>default&#45;86938c&#45;&gt;mtags3</title>
<path fill="none" stroke="black" d="M244.05,-378.87C259.22,-401.06 283.77,-440.83 293.97,-479.16 301.12,-506.02 288.12,-705.07 301.97,-729.16 304,-732.69 306.69,-735.81 309.74,-738.57"/>
<polygon fill="black" stroke="black" points="307.79,-741.49 317.89,-744.7 312,-735.89 307.79,-741.49"/>
</g>
<!-- default&#45;86938c&#45;&gt;mtags -->
<g id="edge11" class="edge">
<title>default&#45;86938c&#45;&gt;mtags</title>
<path fill="none" stroke="black" d="M284.5,-351.61C339.46,-343.99 426.89,-338.27 497.16,-363.16 554.43,-383.45 611.19,-427.34 642.38,-454.06"/>
<polygon fill="black" stroke="black" points="640.26,-456.86 650.1,-460.78 644.86,-451.58 640.26,-456.86"/>
</g>
<!-- default&#45;86938c&#45;&gt;bench -->
<g id="edge47" class="edge">
<title>default&#45;86938c&#45;&gt;bench</title>
<path fill="none" stroke="black" d="M259.43,-377.23C276,-386.68 296.97,-398.65 314.02,-408.39"/>
<polygon fill="black" stroke="black" points="312.62,-411.62 323.04,-413.54 316.09,-405.54 312.62,-411.62"/>
</g>
<!-- default&#45;86938c&#45;test -->
<g id="node19" class="node">
<title>default&#45;86938c&#45;test</title>
<ellipse fill="none" stroke="black" cx="79.29" cy="-533.16" rx="79.09" ry="18"/>
<text text-anchor="middle" x="79.29" y="-529.46" font-family="Times,serif" font-size="14.00">default&#45;86938c&#45;test</text>
</g>
<!-- default&#45;86938c&#45;test&#45;&gt;cross&#45;test -->
<g id="edge8" class="edge">
<title>default&#45;86938c&#45;test&#45;&gt;cross&#45;test</title>
<path fill="none" stroke="black" d="M93.54,-550.94C109.17,-570.92 136.82,-603.28 166.59,-624.16 208.28,-653.42 262.7,-675.24 300.45,-688.26"/>
<polygon fill="black" stroke="black" points="299.56,-691.65 310.15,-691.53 301.8,-685.02 299.56,-691.65"/>
</g>
<!-- default&#45;86938c&#45;test&#45;&gt;mtest&#45;test -->
<g id="edge10" class="edge">
<title>default&#45;86938c&#45;test&#45;&gt;mtest&#45;test</title>
<path fill="none" stroke="black" d="M81.2,-515.16C85.34,-440.88 104.92,-159.37 166.59,-101.16 239.17,-32.65 312.32,-19.94 390.37,-82.16 402.84,-92.11 388.8,-104.4 398.37,-117.16 400.77,-120.36 403.66,-123.24 406.83,-125.8"/>
<polygon fill="black" stroke="black" points="404.92,-128.74 415.14,-131.57 408.92,-122.99 404.92,-128.74"/>
</g>
<!-- default&#45;86938c&#45;test&#45;&gt;unit&#45;test -->
<g id="edge30" class="edge">
<title>default&#45;86938c&#45;test&#45;&gt;unit&#45;test</title>
<path fill="none" stroke="black" d="M104.36,-550.33C121.21,-561.81 144.56,-576.68 166.59,-587.16 211.07,-608.33 264.91,-625.68 301.76,-636.39"/>
<polygon fill="black" stroke="black" points="301.11,-639.84 311.69,-639.23 303.04,-633.11 301.11,-639.84"/>
</g>
<!-- default&#45;86938c&#45;test&#45;&gt;bench&#45;test -->
<g id="edge38" class="edge">
<title>default&#45;86938c&#45;test&#45;&gt;bench&#45;test</title>
<path fill="none" stroke="black" d="M141.75,-522.03C153.66,-519.87 166.02,-517.63 177.57,-515.54"/>
<polygon fill="black" stroke="black" points="178.27,-518.97 187.48,-513.74 177.02,-512.08 178.27,-518.97"/>
</g>
<!-- default&#45;86938c&#45;test&#45;&gt;input&#45;test -->
<g id="edge15" class="edge">
<title>default&#45;86938c&#45;test&#45;&gt;input&#45;test</title>
<path fill="none" stroke="black" d="M87.01,-515.16C100.47,-479.72 132.41,-398.73 166.59,-334.16 180.2,-308.44 198.19,-280.54 211.4,-260.94"/>
<polygon fill="black" stroke="black" points="214.37,-262.79 217.1,-252.55 208.58,-258.85 214.37,-262.79"/>
</g>
<!-- default&#45;86938c&#45;test&#45;&gt;interfaces&#45;test -->
<g id="edge36" class="edge">
<title>default&#45;86938c&#45;test&#45;&gt;interfaces&#45;test</title>
<path fill="none" stroke="black" d="M80.14,-551.17C80.69,-601.86 89.3,-747.24 166.59,-827.16 224.69,-887.26 261.58,-886.16 345.17,-886.16 345.17,-886.16 345.17,-886.16 448.76,-886.16 498.71,-886.16 555.1,-885.63 598.02,-885.12"/>
<polygon fill="black" stroke="black" points="598.11,-888.62 608.07,-884.99 598.03,-881.62 598.11,-888.62"/>
</g>
<!-- default&#45;86938c&#45;test&#45;&gt;docs&#45;test -->
<g id="edge24" class="edge">
<title>default&#45;86938c&#45;test&#45;&gt;docs&#45;test</title>
<path fill="none" stroke="black" d="M82.5,-515C89.21,-464.18 112.32,-317.12 166.59,-208.16 176.74,-187.77 192.6,-167.6 205.82,-152.62"/>
<polygon fill="black" stroke="black" points="208.73,-154.62 212.85,-144.86 203.54,-149.92 208.73,-154.62"/>
</g>
<!-- default&#45;86938c&#45;test&#45;&gt;mtags&#45;test -->
<g id="edge33" class="edge">
<title>default&#45;86938c&#45;test&#45;&gt;mtags&#45;test</title>
<path fill="none" stroke="black" d="M80.92,-551.43C83.52,-597.6 97,-719.78 166.59,-783.16 258.57,-866.94 417.41,-859.69 499.35,-849.02"/>
<polygon fill="black" stroke="black" points="500,-852.46 509.43,-847.64 499.05,-845.53 500,-852.46"/>
</g>
<!-- default&#45;86938c&#45;test&#45;&gt;default&#45;86938c -->
<g id="edge32" class="edge">
<title>default&#45;86938c&#45;test&#45;&gt;default&#45;86938c</title>
<path fill="none" stroke="black" d="M95.68,-515.4C122.18,-484.81 176.53,-422.07 207.11,-386.76"/>
<polygon fill="black" stroke="black" points="210.08,-388.68 213.98,-378.83 204.79,-384.09 210.08,-388.68"/>
</g>
<!-- metals&#45;test -->
<g id="node20" class="node">
<title>metals&#45;test</title>
<ellipse fill="none" stroke="black" cx="447.76" cy="-90.16" rx="49.29" ry="18"/>
<text text-anchor="middle" x="447.76" y="-86.46" font-family="Times,serif" font-size="14.00">metals&#45;test</text>
</g>
<!-- default&#45;86938c&#45;test&#45;&gt;metals&#45;test -->
<g id="edge12" class="edge">
<title>default&#45;86938c&#45;test&#45;&gt;metals&#45;test</title>
<path fill="none" stroke="black" d="M80.49,-515.12C81.8,-433.61 91.72,-101.11 166.59,-38.16 242.71,25.84 297.74,-2.94 390.37,-39.16 404.28,-44.6 416.91,-55.2 426.68,-65.33"/>
<polygon fill="black" stroke="black" points="424.24,-67.85 433.56,-72.89 429.42,-63.14 424.24,-67.85"/>
</g>
<!-- mtags3&#45;test -->
<g id="node21" class="node">
<title>mtags3&#45;test</title>
<ellipse fill="none" stroke="black" cx="230.28" cy="-756.16" rx="51.99" ry="18"/>
<text text-anchor="middle" x="230.28" y="-752.46" font-family="Times,serif" font-size="14.00">mtags3&#45;test</text>
</g>
<!-- default&#45;86938c&#45;test&#45;&gt;mtags3&#45;test -->
<g id="edge39" class="edge">
<title>default&#45;86938c&#45;test&#45;&gt;mtags3&#45;test</title>
<path fill="none" stroke="black" d="M86.6,-551.29C98.6,-584.12 127.11,-654.62 166.59,-704.16 175.36,-715.18 186.8,-725.5 197.5,-733.99"/>
<polygon fill="black" stroke="black" points="195.42,-736.8 205.49,-740.11 199.68,-731.25 195.42,-736.8"/>
</g>
<!-- slow&#45;test -->
<g id="node22" class="node">
<title>slow&#45;test</title>
<ellipse fill="none" stroke="black" cx="230.28" cy="-560.16" rx="42.49" ry="18"/>
<text text-anchor="middle" x="230.28" y="-556.46" font-family="Times,serif" font-size="14.00">slow&#45;test</text>
</g>
<!-- default&#45;86938c&#45;test&#45;&gt;slow&#45;test -->
<g id="edge46" class="edge">
<title>default&#45;86938c&#45;test&#45;&gt;slow&#45;test</title>
<path fill="none" stroke="black" d="M141.75,-544.3C154.78,-546.66 168.35,-549.12 180.81,-551.38"/>
<polygon fill="black" stroke="black" points="180.52,-554.88 190.98,-553.22 181.77,-548 180.52,-554.88"/>
</g>
<!-- metals&#45;test&#45;&gt;metals -->
<g id="edge42" class="edge">
<title>metals&#45;test&#45;&gt;metals</title>
<path fill="none" stroke="black" d="M480.54,-103.7C486.64,-107.39 492.55,-111.86 497.16,-117.16 512.27,-134.56 532.28,-194.47 543.35,-230.36"/>
<polygon fill="black" stroke="black" points="540.09,-231.68 546.35,-240.22 546.79,-229.64 540.09,-231.68"/>
</g>
<!-- metals&#45;test&#45;&gt;mtags -->
<g id="edge53" class="edge">
<title>metals&#45;test&#45;&gt;mtags</title>
<path fill="none" stroke="black" d="M491.19,-99.06C525.72,-108.55 573.01,-127.06 600.05,-161.16 635.49,-205.86 656.88,-379.48 664.09,-448.07"/>
<polygon fill="black" stroke="black" points="660.62,-448.55 665.13,-458.14 667.58,-447.83 660.62,-448.55"/>
</g>
<!-- mtags3&#45;test&#45;&gt;interfaces -->
<g id="edge18" class="edge">
<title>mtags3&#45;test&#45;&gt;interfaces</title>
<path fill="none" stroke="black" d="M267.69,-768.74C276.38,-771.95 285.57,-775.53 293.97,-779.16 297.62,-780.74 298.11,-782.25 301.97,-783.16 454.11,-819.08 641.15,-797.75 729.17,-784.02"/>
<polygon fill="black" stroke="black" points="729.83,-787.46 739.15,-782.43 728.73,-780.55 729.83,-787.46"/>
</g>
<!-- mtags3&#45;test&#45;&gt;mtags3 -->
<g id="edge26" class="edge">
<title>mtags3&#45;test&#45;&gt;mtags3</title>
<path fill="none" stroke="black" d="M282.56,-756.16C288.1,-756.16 293.72,-756.16 299.19,-756.16"/>
<polygon fill="black" stroke="black" points="299.48,-759.66 309.48,-756.16 299.48,-752.66 299.48,-759.66"/>
</g>
<!-- slow&#45;test&#45;&gt;slow -->
<g id="edge5" class="edge">
<title>slow&#45;test&#45;&gt;slow</title>
<path fill="none" stroke="black" d="M272.4,-558.72C284.2,-558.31 296.99,-557.86 308.51,-557.45"/>
<polygon fill="black" stroke="black" points="308.8,-560.94 318.67,-557.1 308.55,-553.95 308.8,-560.94"/>
</g>
<!-- slow&#45;test&#45;&gt;unit -->
<g id="edge34" class="edge">
<title>slow&#45;test&#45;&gt;unit</title>
<path fill="none" stroke="black" d="M261.73,-572.39C274.02,-576.71 288.46,-581.02 301.97,-583.16 340.78,-589.32 361.66,-609.98 390.37,-583.16 409.41,-565.38 385.25,-488.68 398.37,-466.16 402.5,-459.07 408.91,-453.24 415.73,-448.6"/>
<polygon fill="black" stroke="black" points="417.69,-451.51 424.45,-443.35 414.08,-445.51 417.69,-451.51"/>
</g>
<!-- mtags&#45;&gt;interfaces -->
<g id="edge29" class="edge">
<title>mtags&#45;&gt;interfaces</title>
<path fill="none" stroke="black" d="M675.43,-493.97C693.99,-544.13 746.8,-686.83 769.22,-747.41"/>
<polygon fill="black" stroke="black" points="766.04,-748.91 772.79,-757.07 772.6,-746.48 766.04,-748.91"/>
</g>
<!-- bench&#45;&gt;unit -->
<g id="edge13" class="edge">
<title>bench&#45;&gt;unit</title>
<path fill="none" stroke="black" d="M377.86,-428.63C388.26,-429.46 399.96,-430.4 410.73,-431.27"/>
<polygon fill="black" stroke="black" points="410.45,-434.76 420.7,-432.07 411.01,-427.78 410.45,-434.76"/>
</g>
</g>
</svg>
